PathFileType	4	(X/Y/Z)	 s08c0403.trc
DataRate	CameraRate	NumFrames	NumMarkers	Units	OrigDataRate	OrigDataStartFrame	OrigNumFrames
200	200	4	50	mm	200	1	2000
Frame#	Time	racr			lacr			c7			jug			rlel			rdr			llel			ldr			s2			lic			ric			lasi			rasi			rpsi			lpsi			rgt			lgt			rth1			rth2			rth3			rth4			rlfc			rmfc			rsh1			rsh2			rsh3			rsh4			rlmal			rmmal			rcal			rtoe			rmt5			lth1			lth2			lth4			lth3			llfc			lmfc			llmal			lmmal			lcal			lmt5			lsh1			lsh2			lsh3			lsh4			ltoe			SBIKE			LBIKE			RBIKE			
		X1	Y1	Z1	X2	Y2	Z2	X3	Y3	Z3	X4	Y4	Z4	X5	Y5	Z5	X6	Y6	Z6	X7	Y7	Z7	X8	Y8	Z8	X9	Y9	Z9	X10	Y10	Z10	X11	Y11	Z11	X12	Y12	Z12	X13	Y13	Z13	X14	Y14	Z14	X15	Y15	Z15	X16	Y16	Z16	X17	Y17	Z17	X18	Y18	Z18	X19	Y19	Z19	X20	Y20	Z20	X21	Y21	Z21	X22	Y22	Z22	X23	Y23	Z23	X24	Y24	Z24	X25	Y25	Z25	X26	Y26	Z26	X27	Y27	Z27	X28	Y28	Z28	X29	Y29	Z29	X30	Y30	Z30	X31	Y31	Z31	X32	Y32	Z32	X33	Y33	Z33	X34	Y34	Z34	X35	Y35	Z35	X36	Y36	Z36	X37	Y37	Z37	X38	Y38	Z38	X39	Y39	Z39	X40	Y40	Z40	X41	Y41	Z41	X42	Y42	Z42	X43	Y43	Z43	X44	Y44	Z44	X45	Y45	Z45	X46	Y46	Z46	X47	Y47	Z47	X48	Y48	Z48	X49	Y49	Z49	X50	Y50	Z50	
1	0.0050	473.765563	1386.167438	-46.633114	494.767556	1401.123657	-409.427484	458.992209	1451.714297	-223.040633	442.313636	1297.292470	-215.893882	552.003292	1144.613863	19.950430	759.885216	927.145686	-52.332281	591.448507	1165.921346	-458.855950	764.430380	927.440038	-425.874105	-78.104721	1197.926799	-244.291410	105.054798	1176.558667	-391.883489	77.111833	1208.587964	-75.552800	120.450570	1116.983522	-350.636123	97.766154	1150.837491	-106.547933	-50.386448	1242.913367	-194.287668	-39.024609	1236.035315	-290.214202	-0.189347	1117.287794	-30.595780	12.634070	1057.172427	-410.538425	149.000480	1036.854760	-25.031942	237.077878	1024.525260	-28.254228	305.176672	970.287622	-33.170884	249.740708	1056.751295	-43.901648	405.287019	904.962978	-56.085114	388.865705	896.146001	-169.321830	334.913684	796.020745	-25.730409	319.798913	708.990190	-45.187773	263.779692	643.406406	-53.072014	344.936097	703.708848	-80.278501	208.319831	538.501281	-64.038518	225.435993	561.776165	-150.319310	128.945049	503.051432	-107.324866	427.840674	520.508077	-102.154717	340.540932	481.539872	-36.228904	50.790688	926.345505	-427.057227	92.228106	849.370059	-421.217001	121.337686	861.029251	-439.056445	87.895568	760.726526	-416.711991	110.226186	635.516568	-389.669185	102.157220	612.718469	-288.652160	36.001942	222.270127	-395.724163	73.087627	256.148818	-323.231307	-25.403540	179.324532	-354.862497	188.161870	168.343077	-416.576235	110.499618	524.521037	-437.180169	88.135549	426.523668	-401.662540	55.377877	344.753888	-405.505523	107.532524	427.420210	-368.037455	261.396882	214.774535	-347.519255	-211.340576	918.122249	-231.590184	-5.921017	83.554687	-426.047031	-8.669966	80.381718	-27.386187	
2	0.0100	473.696895	1386.168189	-46.618651	494.641729	1401.037431	-409.442853	458.867831	1451.704194	-223.045999	442.159992	1297.267254	-215.757024	551.986050	1144.620496	19.959997	759.832379	927.154221	-52.327884	591.345365	1165.855407	-458.884321	764.390891	927.423775	-425.838593	-78.235473	1197.941161	-244.304033	104.922922	1176.524268	-391.868878	76.990686	1208.584135	-75.580920	120.340653	1116.960658	-350.644379	97.660880	1150.858227	-106.552868	-50.504579	1242.982847	-194.362156	-39.117825	1236.039889	-290.270061	-0.287512	1117.305155	-30.624391	12.494963	1057.164608	-410.580932	148.915752	1036.910508	-25.056124	237.006265	1024.559251	-28.269766	305.085787	970.351749	-33.229754	249.621496	1056.832993	-43.935632	405.189854	904.998663	-56.137183	386.235952	895.580220	-168.033986	334.829588	796.038815	-25.755281	319.736727	709.038645	-45.199425	263.695940	643.433090	-53.057539	345.436062	703.132027	-78.203626	208.291201	538.500393	-64.037501	225.392347	561.782030	-150.330797	128.897656	503.036673	-107.298574	427.807488	520.512003	-102.137467	340.505841	481.572040	-36.221650	50.666511	926.344893	-427.092140	92.108911	849.377074	-421.271487	121.235856	861.056707	-439.121237	87.766990	760.727661	-416.752897	110.083312	635.536440	-389.698482	102.072737	612.762704	-288.662549	36.011913	222.273054	-395.739674	73.097191	256.177063	-323.237707	-25.367868	179.325538	-354.874517	188.191941	168.331834	-416.559900	110.392691	524.525961	-437.213482	88.076383	426.529184	-401.682503	55.096150	345.170366	-406.430932	107.481927	427.436462	-368.055721	261.407782	214.770436	-347.540941	-211.361827	918.149393	-231.618415	-5.932497	83.586493	-426.051129	-8.679553	80.493820	-27.296767	
3	0.0150	473.602998	1386.147172	-46.669229	494.512398	1400.968981	-409.495204	458.743943	1451.718969	-223.089526	442.035320	1297.265150	-215.791492	551.996054	1144.598532	19.932969	759.822603	927.120227	-52.334308	591.248674	1165.793254	-458.890603	764.362988	927.420896	-425.820388	-78.369575	1197.930693	-244.322269	104.837999	1176.522158	-391.913821	76.855195	1208.578652	-75.590133	120.216573	1116.940005	-350.676233	97.555839	1150.852129	-106.580587	-50.594054	1243.006199	-194.406696	-39.226049	1236.020156	-290.303652	-0.394509	1117.313231	-30.635010	12.355195	1057.161096	-410.615431	148.824086	1036.936773	-25.081490	236.951268	1024.588133	-28.281973	305.015863	970.385208	-33.299698	249.529067	1056.866876	-43.978829	405.117198	905.071622	-56.170081	386.119991	895.620583	-168.070567	334.764309	796.074066	-25.772971	319.661857	709.060802	-45.208253	263.652303	643.450526	-53.079914	345.367523	703.151937	-78.226140	208.245213	538.501850	-64.027422	225.357636	561.790132	-150.336640	128.865127	503.034237	-107.301680	427.775457	520.541878	-102.126384	340.473505	481.576190	-36.222017	50.531691	926.344688	-427.122296	91.966534	849.367071	-421.312673	121.029155	861.026268	-439.154704	87.634453	760.715725	-416.766930	109.961177	635.538584	-389.723699	101.962808	612.776430	-288.690138	36.017518	222.271044	-395.746773	73.087214	256.150298	-323.230578	-25.350741	179.311691	-354.889777	188.207252	168.333451	-416.562175	110.284106	524.509732	-437.211825	88.018585	426.528736	-401.700166	55.065439	345.154427	-406.423080	107.417716	427.421690	-368.028687	261.424534	214.754390	-347.521125	-211.328459	918.122946	-231.601239	-5.928077	83.602033	-426.040947	-8.670183	80.481630	-27.302857	
4	0.0200	473.531103	1385.923015	-47.290089	492.336043	1400.851581	-410.047859	458.775018	1451.826230	-223.180971	441.804770	1297.238025	-215.988317	552.328715	1144.635619	19.355051	759.804713	927.037309	-52.494003	593.486738	1168.732923	-466.243375	764.321287	927.399577	-425.800810	-78.486031	1197.917296	-244.360294	105.666121	1175.882942	-390.082801	76.665434	1208.453056	-75.577625	122.969735	1119.838057	-357.010035	97.456090	1150.869361	-106.580780	-50.822383	1242.968046	-194.543932	-39.353345	1236.025120	-290.322774	-0.476581	1117.333435	-30.657052	11.631227	1058.089662	-413.064311	148.740679	1036.971229	-25.101027	236.969800	1024.867027	-28.279934	304.754458	970.419036	-33.061095	250.345842	1056.443766	-42.946445	405.023709	905.117384	-56.223368	387.583474	895.378118	-167.194842	334.600389	796.361405	-25.348578	318.169824	708.998997	-51.068042	263.603518	643.457467	-53.108467	344.751403	703.952186	-81.358714	208.089284	538.542651	-63.828794	225.307848	561.835870	-150.296492	128.825703	503.008474	-107.285340	427.747698	520.553918	-102.154630	340.500443	481.598730	-36.070910	50.640377	926.321112	-426.596772	91.878743	849.396960	-421.266641	121.675420	860.479948	-435.004094	87.861381	760.528348	-415.803408	114.027217	640.204073	-398.070912	97.722877	613.909777	-290.787209	36.023945	222.248267	-395.751691	73.077240	256.123534	-323.223450	-25.323596	179.292335	-354.879205	187.479660	170.197270	-419.280493	93.149782	520.271718	-437.031719	87.967321	426.557358	-401.766550	54.483373	346.267950	-408.193198	107.132817	428.551202	-370.399233	261.439950	214.744824	-347.531465	-211.362319	918.123565	-231.573259	-5.928087	83.591497	-426.032136	-8.660079	80.473938	-27.295530	
